<mxfile host="65bd71144e" pages="3">
    <diagram id="C5RBs43oDa-KdzZeNtuy" name="concept">
        <mxGraphModel dx="1145" dy="771" grid="1" gridSize="10" guides="1" tooltips="1" connect="1" arrows="1" fold="1" page="1" pageScale="1" pageWidth="827" pageHeight="1169" math="0" shadow="0">
            <root>
                <mxCell id="WIyWlLk6GJQsqaUBKTNV-0"/>
                <mxCell id="WIyWlLk6GJQsqaUBKTNV-1" parent="WIyWlLk6GJQsqaUBKTNV-0"/>
                <mxCell id="46C1zrqNfPV2H7ZZXKrt-6" style="edgeStyle=orthogonalEdgeStyle;rounded=1;orthogonalLoop=1;jettySize=auto;html=1;exitX=0.75;exitY=0;exitDx=0;exitDy=0;entryX=0.675;entryY=1;entryDx=0;entryDy=0;entryPerimeter=0;strokeColor=#788AA3;fontColor=#46495D;" parent="WIyWlLk6GJQsqaUBKTNV-1" target="WIyWlLk6GJQsqaUBKTNV-12" edge="1">
                    <mxGeometry relative="1" as="geometry">
                        <mxPoint x="290" y="190" as="sourcePoint"/>
                    </mxGeometry>
                </mxCell>
                <mxCell id="46C1zrqNfPV2H7ZZXKrt-24" style="edgeStyle=orthogonalEdgeStyle;rounded=1;orthogonalLoop=1;jettySize=auto;html=1;exitX=0.75;exitY=0;exitDx=0;exitDy=0;entryX=0.75;entryY=0;entryDx=0;entryDy=0;strokeColor=#788AA3;fontColor=#46495D;startArrow=none;" parent="WIyWlLk6GJQsqaUBKTNV-1" source="46C1zrqNfPV2H7ZZXKrt-3" edge="1">
                    <mxGeometry relative="1" as="geometry">
                        <mxPoint x="670" y="200" as="targetPoint"/>
                    </mxGeometry>
                </mxCell>
                <mxCell id="46C1zrqNfPV2H7ZZXKrt-5" style="edgeStyle=orthogonalEdgeStyle;rounded=1;orthogonalLoop=1;jettySize=auto;html=1;exitX=0.5;exitY=1;exitDx=0;exitDy=0;entryX=0.75;entryY=1;entryDx=0;entryDy=0;strokeColor=#788AA3;fontColor=#46495D;" parent="WIyWlLk6GJQsqaUBKTNV-1" source="46C1zrqNfPV2H7ZZXKrt-3" edge="1">
                    <mxGeometry relative="1" as="geometry">
                        <mxPoint x="290" y="230" as="targetPoint"/>
                    </mxGeometry>
                </mxCell>
                <mxCell id="46C1zrqNfPV2H7ZZXKrt-10" style="edgeStyle=orthogonalEdgeStyle;rounded=1;orthogonalLoop=1;jettySize=auto;html=1;exitX=0.75;exitY=1;exitDx=0;exitDy=0;entryX=0.75;entryY=0;entryDx=0;entryDy=0;strokeColor=#788AA3;fontColor=#46495D;startArrow=none;" parent="WIyWlLk6GJQsqaUBKTNV-1" source="46C1zrqNfPV2H7ZZXKrt-39" edge="1">
                    <mxGeometry relative="1" as="geometry">
                        <mxPoint x="420" y="435" as="targetPoint"/>
                    </mxGeometry>
                </mxCell>
                <mxCell id="46C1zrqNfPV2H7ZZXKrt-41" style="edgeStyle=orthogonalEdgeStyle;rounded=1;orthogonalLoop=1;jettySize=auto;html=1;exitX=0.75;exitY=0;exitDx=0;exitDy=0;entryX=0.4;entryY=1.025;entryDx=0;entryDy=0;entryPerimeter=0;fontColor=#46495D;strokeColor=#788AA3;fillColor=#B2C9AB;" parent="WIyWlLk6GJQsqaUBKTNV-1" source="46C1zrqNfPV2H7ZZXKrt-39" edge="1">
                    <mxGeometry relative="1" as="geometry">
                        <mxPoint x="628" y="241" as="targetPoint"/>
                    </mxGeometry>
                </mxCell>
                <mxCell id="46C1zrqNfPV2H7ZZXKrt-47" style="edgeStyle=orthogonalEdgeStyle;rounded=1;orthogonalLoop=1;jettySize=auto;html=1;exitX=0.25;exitY=1;exitDx=0;exitDy=0;entryX=1;entryY=0.5;entryDx=0;entryDy=0;fontColor=#46495D;strokeColor=#788AA3;fillColor=#B2C9AB;" parent="WIyWlLk6GJQsqaUBKTNV-1" source="46C1zrqNfPV2H7ZZXKrt-39" edge="1">
                    <mxGeometry relative="1" as="geometry">
                        <mxPoint x="380" y="530" as="targetPoint"/>
                    </mxGeometry>
                </mxCell>
                <mxCell id="46C1zrqNfPV2H7ZZXKrt-43" style="edgeStyle=orthogonalEdgeStyle;rounded=1;orthogonalLoop=1;jettySize=auto;html=1;exitX=0;exitY=0.5;exitDx=0;exitDy=0;entryX=0.75;entryY=1;entryDx=0;entryDy=0;fontColor=#46495D;strokeColor=#788AA3;fillColor=#B2C9AB;" parent="WIyWlLk6GJQsqaUBKTNV-1" source="46C1zrqNfPV2H7ZZXKrt-42" edge="1">
                    <mxGeometry relative="1" as="geometry">
                        <Array as="points">
                            <mxPoint x="650" y="85"/>
                            <mxPoint x="650" y="490"/>
                            <mxPoint x="420" y="490"/>
                        </Array>
                        <mxPoint x="420" y="475" as="targetPoint"/>
                    </mxGeometry>
                </mxCell>
                <mxCell id="46C1zrqNfPV2H7ZZXKrt-44" style="edgeStyle=orthogonalEdgeStyle;rounded=1;orthogonalLoop=1;jettySize=auto;html=1;exitX=0.5;exitY=0;exitDx=0;exitDy=0;entryX=0.658;entryY=0.9;entryDx=0;entryDy=0;entryPerimeter=0;fontColor=#46495D;strokeColor=#788AA3;fillColor=#B2C9AB;" parent="WIyWlLk6GJQsqaUBKTNV-1" source="46C1zrqNfPV2H7ZZXKrt-42" edge="1">
                    <mxGeometry relative="1" as="geometry">
                        <mxPoint x="748.96" y="142" as="targetPoint"/>
                    </mxGeometry>
                </mxCell>
                <mxCell id="13" style="edgeStyle=none;html=1;exitX=1;exitY=0.5;exitDx=0;exitDy=0;fontColor=#000000;" edge="1" parent="WIyWlLk6GJQsqaUBKTNV-1" source="0" target="1">
                    <mxGeometry relative="1" as="geometry"/>
                </mxCell>
                <mxCell id="0" value="Banks' Balance Sheet" style="rounded=1;whiteSpace=wrap;html=1;fontSize=12;glass=0;strokeWidth=1;shadow=0;fillColor=#cce5ff;strokeColor=#36393d;fontColor=#000000;" vertex="1" parent="WIyWlLk6GJQsqaUBKTNV-1">
                    <mxGeometry x="330" y="330" width="120" height="40" as="geometry"/>
                </mxCell>
                <mxCell id="15" style="edgeStyle=none;html=1;exitX=1;exitY=0;exitDx=0;exitDy=0;entryX=0;entryY=0.5;entryDx=0;entryDy=0;fontColor=#000000;" edge="1" parent="WIyWlLk6GJQsqaUBKTNV-1" source="1" target="6">
                    <mxGeometry relative="1" as="geometry"/>
                </mxCell>
                <mxCell id="16" style="edgeStyle=none;html=1;exitX=1;exitY=0.25;exitDx=0;exitDy=0;entryX=0;entryY=0.75;entryDx=0;entryDy=0;fontColor=#000000;" edge="1" parent="WIyWlLk6GJQsqaUBKTNV-1" source="1" target="2">
                    <mxGeometry relative="1" as="geometry"/>
                </mxCell>
                <mxCell id="17" style="edgeStyle=none;html=1;exitX=1;exitY=0.75;exitDx=0;exitDy=0;entryX=0;entryY=0.5;entryDx=0;entryDy=0;fontColor=#000000;" edge="1" parent="WIyWlLk6GJQsqaUBKTNV-1" source="1" target="7">
                    <mxGeometry relative="1" as="geometry"/>
                </mxCell>
                <mxCell id="18" style="edgeStyle=none;html=1;exitX=1;exitY=1;exitDx=0;exitDy=0;entryX=0;entryY=0.5;entryDx=0;entryDy=0;fontColor=#000000;" edge="1" parent="WIyWlLk6GJQsqaUBKTNV-1" source="1" target="3">
                    <mxGeometry relative="1" as="geometry"/>
                </mxCell>
                <mxCell id="1" value="QLI" style="rounded=1;whiteSpace=wrap;html=1;fontSize=12;glass=0;strokeWidth=1;shadow=0;fillColor=#ffcd28;strokeColor=#d79b00;gradientColor=#ffa500;" vertex="1" parent="WIyWlLk6GJQsqaUBKTNV-1">
                    <mxGeometry x="560" y="290" width="120" height="40" as="geometry"/>
                </mxCell>
                <mxCell id="2" value="Stock Market" style="rounded=1;whiteSpace=wrap;html=1;fontSize=12;glass=0;strokeWidth=1;shadow=0;fillColor=#d5e8d4;strokeColor=#82b366;fontColor=#000000;" vertex="1" parent="WIyWlLk6GJQsqaUBKTNV-1">
                    <mxGeometry x="820" y="250" width="120" height="40" as="geometry"/>
                </mxCell>
                <mxCell id="3" value="Emerging Assets&lt;br&gt;(Bitcoin, NFT, etc.)" style="rounded=1;whiteSpace=wrap;html=1;fontSize=12;glass=0;strokeWidth=1;shadow=0;fillColor=#B2C9AB;strokeColor=#788AA3;fontColor=#46495D;" vertex="1" parent="WIyWlLk6GJQsqaUBKTNV-1">
                    <mxGeometry x="800" y="410" width="120" height="40" as="geometry"/>
                </mxCell>
                <mxCell id="11" style="edgeStyle=none;html=1;entryX=0.25;entryY=0;entryDx=0;entryDy=0;fontColor=#000000;" edge="1" parent="WIyWlLk6GJQsqaUBKTNV-1" source="5" target="1">
                    <mxGeometry relative="1" as="geometry"/>
                </mxCell>
                <mxCell id="5" value="Savings" style="rounded=1;whiteSpace=wrap;html=1;fontSize=12;glass=0;strokeWidth=1;shadow=0;fillColor=#cce5ff;strokeColor=#36393d;fontColor=#000000;" vertex="1" parent="WIyWlLk6GJQsqaUBKTNV-1">
                    <mxGeometry x="414" y="160" width="120" height="40" as="geometry"/>
                </mxCell>
                <mxCell id="6" value="Housing" style="rounded=1;whiteSpace=wrap;html=1;fontSize=12;glass=0;strokeWidth=1;shadow=0;fillColor=#B2C9AB;strokeColor=#788AA3;fontColor=#46495D;" vertex="1" parent="WIyWlLk6GJQsqaUBKTNV-1">
                    <mxGeometry x="810" y="170" width="120" height="40" as="geometry"/>
                </mxCell>
                <mxCell id="7" value="Gold" style="rounded=1;whiteSpace=wrap;html=1;fontSize=12;glass=0;strokeWidth=1;shadow=0;fillColor=#B2C9AB;strokeColor=#788AA3;fontColor=#46495D;" vertex="1" parent="WIyWlLk6GJQsqaUBKTNV-1">
                    <mxGeometry x="820" y="330" width="120" height="40" as="geometry"/>
                </mxCell>
                <mxCell id="12" style="edgeStyle=none;html=1;exitX=1;exitY=0.5;exitDx=0;exitDy=0;entryX=0;entryY=0.25;entryDx=0;entryDy=0;fontColor=#000000;" edge="1" parent="WIyWlLk6GJQsqaUBKTNV-1" source="9" target="1">
                    <mxGeometry relative="1" as="geometry"/>
                </mxCell>
                <mxCell id="9" value="CPI" style="rounded=1;whiteSpace=wrap;html=1;fontSize=12;glass=0;strokeWidth=1;shadow=0;fillColor=#cce5ff;strokeColor=#36393d;fontColor=#000000;" vertex="1" parent="WIyWlLk6GJQsqaUBKTNV-1">
                    <mxGeometry x="340" y="260" width="120" height="30" as="geometry"/>
                </mxCell>
                <mxCell id="14" style="edgeStyle=none;html=1;exitX=1;exitY=0;exitDx=0;exitDy=0;entryX=0.25;entryY=1;entryDx=0;entryDy=0;fontColor=#000000;" edge="1" parent="WIyWlLk6GJQsqaUBKTNV-1" source="10" target="1">
                    <mxGeometry relative="1" as="geometry"/>
                </mxCell>
                <mxCell id="10" value="Interest Rate" style="rounded=1;whiteSpace=wrap;html=1;fontSize=12;glass=0;strokeWidth=1;shadow=0;fillColor=#cce5ff;strokeColor=#36393d;fontColor=#000000;" vertex="1" parent="WIyWlLk6GJQsqaUBKTNV-1">
                    <mxGeometry x="430" y="410" width="120" height="40" as="geometry"/>
                </mxCell>
            </root>
        </mxGraphModel>
    </diagram>
    <diagram id="NNsAt_jduuyerDblZ2Vs" name="architecture">
        <mxGraphModel dx="802" dy="566" grid="1" gridSize="10" guides="1" tooltips="1" connect="1" arrows="1" fold="1" page="1" pageScale="1" pageWidth="827" pageHeight="1169" math="0" shadow="0">
            <root>
                <mxCell id="CKZqvwoXIe6cBRnnbAcG-0"/>
                <mxCell id="CKZqvwoXIe6cBRnnbAcG-1" parent="CKZqvwoXIe6cBRnnbAcG-0"/>
                <mxCell id="oso1BwOqgX3VS6e-6wmC-3" value="Economy" style="group;fontStyle=1;rounded=1;strokeColor=default;shadow=1;" vertex="1" connectable="0" parent="CKZqvwoXIe6cBRnnbAcG-1">
                    <mxGeometry x="210" y="190" width="340" height="350" as="geometry"/>
                </mxCell>
                <mxCell id="lI1vc82rHORZV2ty-l43-1" style="edgeStyle=orthogonalEdgeStyle;rounded=0;orthogonalLoop=1;jettySize=auto;html=1;exitX=1;exitY=0.75;exitDx=0;exitDy=0;" edge="1" parent="oso1BwOqgX3VS6e-6wmC-3" source="JGRdY1BgHVwiVRzi3HH6-1" target="lI1vc82rHORZV2ty-l43-0">
                    <mxGeometry relative="1" as="geometry"/>
                </mxCell>
                <mxCell id="JGRdY1BgHVwiVRzi3HH6-1" value="Indicators" style="rounded=1;whiteSpace=wrap;html=1;fillColor=#d5e8d4;strokeColor=#82b366;arcSize=50;" vertex="1" parent="oso1BwOqgX3VS6e-6wmC-3">
                    <mxGeometry x="100" y="159.99903225806455" width="136" height="67.74193548387098" as="geometry"/>
                </mxCell>
                <mxCell id="oso1BwOqgX3VS6e-6wmC-0" style="edgeStyle=orthogonalEdgeStyle;rounded=0;orthogonalLoop=1;jettySize=auto;html=1;" edge="1" parent="oso1BwOqgX3VS6e-6wmC-3" source="JGRdY1BgHVwiVRzi3HH6-2" target="JGRdY1BgHVwiVRzi3HH6-1">
                    <mxGeometry relative="1" as="geometry"/>
                </mxCell>
                <mxCell id="oso1BwOqgX3VS6e-6wmC-8" value="timely processing" style="edgeLabel;html=1;align=center;verticalAlign=middle;resizable=0;points=[];" vertex="1" connectable="0" parent="oso1BwOqgX3VS6e-6wmC-0">
                    <mxGeometry x="-0.5728" y="3" relative="1" as="geometry">
                        <mxPoint as="offset"/>
                    </mxGeometry>
                </mxCell>
                <mxCell id="JGRdY1BgHVwiVRzi3HH6-2" value="Markets" style="rounded=1;whiteSpace=wrap;html=1;" vertex="1" parent="oso1BwOqgX3VS6e-6wmC-3">
                    <mxGeometry x="-15.996666666666668" y="60" width="136" height="67.74193548387098" as="geometry"/>
                </mxCell>
                <mxCell id="oso1BwOqgX3VS6e-6wmC-1" style="edgeStyle=orthogonalEdgeStyle;rounded=0;orthogonalLoop=1;jettySize=auto;html=1;exitX=0;exitY=0.25;exitDx=0;exitDy=0;" edge="1" parent="oso1BwOqgX3VS6e-6wmC-3" source="JGRdY1BgHVwiVRzi3HH6-3" target="JGRdY1BgHVwiVRzi3HH6-1">
                    <mxGeometry relative="1" as="geometry"/>
                </mxCell>
                <mxCell id="oso1BwOqgX3VS6e-6wmC-7" value="Import" style="edgeLabel;html=1;align=center;verticalAlign=middle;resizable=0;points=[];" vertex="1" connectable="0" parent="oso1BwOqgX3VS6e-6wmC-1">
                    <mxGeometry x="-0.2525" y="4" relative="1" as="geometry">
                        <mxPoint as="offset"/>
                    </mxGeometry>
                </mxCell>
                <mxCell id="JGRdY1BgHVwiVRzi3HH6-3" value="Sectors" style="rounded=1;whiteSpace=wrap;html=1;" vertex="1" parent="oso1BwOqgX3VS6e-6wmC-3">
                    <mxGeometry x="236" y="79.99709677419355" width="136" height="67.74193548387098" as="geometry"/>
                </mxCell>
                <mxCell id="oso1BwOqgX3VS6e-6wmC-2" style="edgeStyle=orthogonalEdgeStyle;rounded=0;orthogonalLoop=1;jettySize=auto;html=1;exitX=1;exitY=0.5;exitDx=0;exitDy=0;entryX=0.5;entryY=1;entryDx=0;entryDy=0;" edge="1" parent="oso1BwOqgX3VS6e-6wmC-3" source="JGRdY1BgHVwiVRzi3HH6-4" target="JGRdY1BgHVwiVRzi3HH6-1">
                    <mxGeometry relative="1" as="geometry"/>
                </mxCell>
                <mxCell id="oso1BwOqgX3VS6e-6wmC-6" value="Manual edit" style="edgeLabel;html=1;align=center;verticalAlign=middle;resizable=0;points=[];" vertex="1" connectable="0" parent="oso1BwOqgX3VS6e-6wmC-2">
                    <mxGeometry x="-0.047" y="2" relative="1" as="geometry">
                        <mxPoint as="offset"/>
                    </mxGeometry>
                </mxCell>
                <mxCell id="JGRdY1BgHVwiVRzi3HH6-4" value="News" style="rounded=1;whiteSpace=wrap;html=1;" vertex="1" parent="oso1BwOqgX3VS6e-6wmC-3">
                    <mxGeometry x="102.00333333333333" y="299.9980645161291" width="136" height="67.74193548387098" as="geometry"/>
                </mxCell>
                <mxCell id="lI1vc82rHORZV2ty-l43-0" value="" style="strokeWidth=2;html=1;shape=mxgraph.flowchart.database;whiteSpace=wrap;rounded=1;shadow=1;" vertex="1" parent="oso1BwOqgX3VS6e-6wmC-3">
                    <mxGeometry x="256" y="180" width="60" height="60" as="geometry"/>
                </mxCell>
            </root>
        </mxGraphModel>
    </diagram>
    <diagram id="iR-nfiJCWFu1bvOtKLY3" name="UX">
        <mxGraphModel dx="802" dy="1735" grid="1" gridSize="10" guides="1" tooltips="1" connect="1" arrows="1" fold="1" page="1" pageScale="1" pageWidth="827" pageHeight="1169" math="0" shadow="0">
            <root>
                <mxCell id="kL_oIdWE3ERjZyZuCVRg-0"/>
                <mxCell id="kL_oIdWE3ERjZyZuCVRg-1" parent="kL_oIdWE3ERjZyZuCVRg-0"/>
                <mxCell id="R64345A5zoMkeh7rRmpc-5" style="edgeStyle=orthogonalEdgeStyle;rounded=0;orthogonalLoop=1;jettySize=auto;html=1;" edge="1" parent="kL_oIdWE3ERjZyZuCVRg-1" source="R64345A5zoMkeh7rRmpc-0" target="R64345A5zoMkeh7rRmpc-4">
                    <mxGeometry relative="1" as="geometry"/>
                </mxCell>
                <mxCell id="R64345A5zoMkeh7rRmpc-0" value="messenger" style="html=1;verticalLabelPosition=bottom;align=center;labelBackgroundColor=#ffffff;verticalAlign=top;strokeWidth=2;strokeColor=#0080F0;shadow=0;dashed=0;shape=mxgraph.ios7.icons.smartphone;rounded=1;" vertex="1" parent="kL_oIdWE3ERjZyZuCVRg-1">
                    <mxGeometry x="420" y="270" width="18" height="30" as="geometry"/>
                </mxCell>
                <mxCell id="R64345A5zoMkeh7rRmpc-6" style="edgeStyle=orthogonalEdgeStyle;rounded=0;orthogonalLoop=1;jettySize=auto;html=1;" edge="1" parent="kL_oIdWE3ERjZyZuCVRg-1" source="R64345A5zoMkeh7rRmpc-2" target="R64345A5zoMkeh7rRmpc-3">
                    <mxGeometry relative="1" as="geometry"/>
                </mxCell>
                <mxCell id="R64345A5zoMkeh7rRmpc-7" value="Monitor" style="edgeLabel;html=1;align=center;verticalAlign=middle;resizable=0;points=[];rotation=90;" vertex="1" connectable="0" parent="R64345A5zoMkeh7rRmpc-6">
                    <mxGeometry x="-0.3519" y="-1" relative="1" as="geometry">
                        <mxPoint as="offset"/>
                    </mxGeometry>
                </mxCell>
                <mxCell id="R64345A5zoMkeh7rRmpc-2" value="OP team" style="verticalLabelPosition=bottom;html=1;verticalAlign=top;align=center;strokeColor=none;fillColor=#00BEF2;shape=mxgraph.azure.user;rounded=1;shadow=1;" vertex="1" parent="kL_oIdWE3ERjZyZuCVRg-1">
                    <mxGeometry x="329.5" y="30" width="47.5" height="50" as="geometry"/>
                </mxCell>
                <mxCell id="R64345A5zoMkeh7rRmpc-9" style="edgeStyle=orthogonalEdgeStyle;rounded=0;orthogonalLoop=1;jettySize=auto;html=1;entryX=0.75;entryY=0.342;entryDx=0;entryDy=0;entryPerimeter=0;" edge="1" parent="kL_oIdWE3ERjZyZuCVRg-1" source="R64345A5zoMkeh7rRmpc-3" target="R64345A5zoMkeh7rRmpc-16">
                    <mxGeometry relative="1" as="geometry"/>
                </mxCell>
                <mxCell id="R64345A5zoMkeh7rRmpc-3" value="desktop" style="sketch=0;outlineConnect=0;gradientColor=none;fontColor=#545B64;strokeColor=none;fillColor=#879196;dashed=0;verticalLabelPosition=bottom;verticalAlign=top;align=center;html=1;fontSize=12;fontStyle=0;aspect=fixed;shape=mxgraph.aws4.illustration_desktop;pointerEvents=1;rounded=1;shadow=1;" vertex="1" parent="kL_oIdWE3ERjZyZuCVRg-1">
                    <mxGeometry x="480" y="80" width="67.03" height="61" as="geometry"/>
                </mxCell>
                <mxCell id="R64345A5zoMkeh7rRmpc-21" style="edgeStyle=orthogonalEdgeStyle;rounded=0;orthogonalLoop=1;jettySize=auto;html=1;" edge="1" parent="kL_oIdWE3ERjZyZuCVRg-1" source="R64345A5zoMkeh7rRmpc-4" target="R64345A5zoMkeh7rRmpc-16">
                    <mxGeometry relative="1" as="geometry">
                        <Array as="points">
                            <mxPoint x="570" y="200"/>
                        </Array>
                    </mxGeometry>
                </mxCell>
                <mxCell id="R64345A5zoMkeh7rRmpc-22" value="subscribe" style="edgeLabel;html=1;align=center;verticalAlign=middle;resizable=0;points=[];" vertex="1" connectable="0" parent="R64345A5zoMkeh7rRmpc-21">
                    <mxGeometry x="0.1926" y="4" relative="1" as="geometry">
                        <mxPoint as="offset"/>
                    </mxGeometry>
                </mxCell>
                <mxCell id="R64345A5zoMkeh7rRmpc-4" value="Users" style="sketch=0;outlineConnect=0;fontColor=#232F3E;gradientColor=none;fillColor=#232F3D;strokeColor=none;dashed=0;verticalLabelPosition=bottom;verticalAlign=top;align=center;html=1;fontSize=12;fontStyle=0;aspect=fixed;pointerEvents=1;shape=mxgraph.aws4.users;rounded=1;shadow=1;" vertex="1" parent="kL_oIdWE3ERjZyZuCVRg-1">
                    <mxGeometry x="510" y="300" width="78" height="78" as="geometry"/>
                </mxCell>
                <mxCell id="R64345A5zoMkeh7rRmpc-10" style="edgeStyle=orthogonalEdgeStyle;rounded=0;orthogonalLoop=1;jettySize=auto;html=1;exitX=0.93;exitY=0.93;exitDx=0;exitDy=0;exitPerimeter=0;entryX=0.167;entryY=0.167;entryDx=0;entryDy=0;entryPerimeter=0;" edge="1" parent="kL_oIdWE3ERjZyZuCVRg-1" source="R64345A5zoMkeh7rRmpc-8" target="R64345A5zoMkeh7rRmpc-0">
                    <mxGeometry relative="1" as="geometry"/>
                </mxCell>
                <mxCell id="R64345A5zoMkeh7rRmpc-20" value="post" style="edgeLabel;html=1;align=center;verticalAlign=middle;resizable=0;points=[];" vertex="1" connectable="0" parent="R64345A5zoMkeh7rRmpc-10">
                    <mxGeometry x="-0.2839" y="-2" relative="1" as="geometry">
                        <mxPoint as="offset"/>
                    </mxGeometry>
                </mxCell>
                <mxCell id="R64345A5zoMkeh7rRmpc-13" style="edgeStyle=orthogonalEdgeStyle;rounded=0;orthogonalLoop=1;jettySize=auto;html=1;exitX=0.5;exitY=1;exitDx=0;exitDy=0;exitPerimeter=0;entryX=-0.033;entryY=0.848;entryDx=0;entryDy=0;entryPerimeter=0;startArrow=none;" edge="1" parent="kL_oIdWE3ERjZyZuCVRg-1" source="R64345A5zoMkeh7rRmpc-23" target="R64345A5zoMkeh7rRmpc-11">
                    <mxGeometry relative="1" as="geometry"/>
                </mxCell>
                <mxCell id="R64345A5zoMkeh7rRmpc-19" value="newsletter" style="edgeLabel;html=1;align=center;verticalAlign=middle;resizable=0;points=[];" vertex="1" connectable="0" parent="R64345A5zoMkeh7rRmpc-13">
                    <mxGeometry x="0.2048" relative="1" as="geometry">
                        <mxPoint as="offset"/>
                    </mxGeometry>
                </mxCell>
                <mxCell id="R64345A5zoMkeh7rRmpc-8" value="internet" style="outlineConnect=0;dashed=0;verticalLabelPosition=bottom;verticalAlign=top;align=center;html=1;shape=mxgraph.aws3.internet_2;fillColor=#D2D3D3;gradientColor=none;rounded=1;shadow=1;strokeColor=default;" vertex="1" parent="kL_oIdWE3ERjZyZuCVRg-1">
                    <mxGeometry x="250" y="246" width="79.5" height="54" as="geometry"/>
                </mxCell>
                <mxCell id="R64345A5zoMkeh7rRmpc-14" style="edgeStyle=orthogonalEdgeStyle;rounded=0;orthogonalLoop=1;jettySize=auto;html=1;" edge="1" parent="kL_oIdWE3ERjZyZuCVRg-1" source="R64345A5zoMkeh7rRmpc-11" target="R64345A5zoMkeh7rRmpc-4">
                    <mxGeometry relative="1" as="geometry"/>
                </mxCell>
                <mxCell id="R64345A5zoMkeh7rRmpc-11" value="email" style="html=1;verticalLabelPosition=bottom;align=center;labelBackgroundColor=#ffffff;verticalAlign=top;strokeWidth=2;strokeColor=#0080F0;shadow=0;dashed=0;shape=mxgraph.ios7.icons.mail;rounded=1;" vertex="1" parent="kL_oIdWE3ERjZyZuCVRg-1">
                    <mxGeometry x="414" y="361.5" width="30" height="16.5" as="geometry"/>
                </mxCell>
                <mxCell id="R64345A5zoMkeh7rRmpc-18" style="edgeStyle=orthogonalEdgeStyle;rounded=0;orthogonalLoop=1;jettySize=auto;html=1;entryX=1;entryY=0.7;entryDx=0;entryDy=0;entryPerimeter=0;" edge="1" parent="kL_oIdWE3ERjZyZuCVRg-1" source="R64345A5zoMkeh7rRmpc-16" target="R64345A5zoMkeh7rRmpc-8">
                    <mxGeometry relative="1" as="geometry"/>
                </mxCell>
                <mxCell id="R64345A5zoMkeh7rRmpc-16" value="servers" style="verticalLabelPosition=bottom;sketch=0;aspect=fixed;html=1;verticalAlign=top;strokeColor=#232F3E;align=center;outlineConnect=0;shape=mxgraph.citrix.web_server;shadow=1;dashed=0;fontFamily=Helvetica;fontSize=12;fontColor=#232F3E;fillColor=#ffffff;" vertex="1" parent="kL_oIdWE3ERjZyZuCVRg-1">
                    <mxGeometry x="370" y="140" width="60" height="60" as="geometry"/>
                </mxCell>
                <mxCell id="R64345A5zoMkeh7rRmpc-23" value="" style="sketch=0;html=1;aspect=fixed;strokeColor=none;shadow=0;align=center;verticalAlign=top;fillColor=#3B8DF1;shape=mxgraph.gcp2.clock;rounded=1;" vertex="1" parent="kL_oIdWE3ERjZyZuCVRg-1">
                    <mxGeometry x="274.75" y="348" width="30" height="30" as="geometry"/>
                </mxCell>
                <mxCell id="R64345A5zoMkeh7rRmpc-24" value="" style="edgeStyle=orthogonalEdgeStyle;rounded=0;orthogonalLoop=1;jettySize=auto;html=1;exitX=0.5;exitY=1;exitDx=0;exitDy=0;exitPerimeter=0;entryX=-0.033;entryY=0.848;entryDx=0;entryDy=0;entryPerimeter=0;endArrow=none;" edge="1" parent="kL_oIdWE3ERjZyZuCVRg-1" source="R64345A5zoMkeh7rRmpc-8" target="R64345A5zoMkeh7rRmpc-23">
                    <mxGeometry relative="1" as="geometry">
                        <mxPoint x="289.75" y="300" as="sourcePoint"/>
                        <mxPoint x="413.01" y="375.49199999999996" as="targetPoint"/>
                    </mxGeometry>
                </mxCell>
                <mxCell id="R64345A5zoMkeh7rRmpc-27" value="" style="edgeStyle=orthogonalEdgeStyle;rounded=0;orthogonalLoop=1;jettySize=auto;html=1;" edge="1" parent="kL_oIdWE3ERjZyZuCVRg-1" source="R64345A5zoMkeh7rRmpc-26" target="R64345A5zoMkeh7rRmpc-16">
                    <mxGeometry relative="1" as="geometry"/>
                </mxCell>
                <mxCell id="R64345A5zoMkeh7rRmpc-28" value="" style="edgeStyle=orthogonalEdgeStyle;rounded=0;orthogonalLoop=1;jettySize=auto;html=1;" edge="1" parent="kL_oIdWE3ERjZyZuCVRg-1" source="R64345A5zoMkeh7rRmpc-26" target="R64345A5zoMkeh7rRmpc-16">
                    <mxGeometry relative="1" as="geometry"/>
                </mxCell>
                <mxCell id="R64345A5zoMkeh7rRmpc-29" value="iterate" style="edgeLabel;html=1;align=center;verticalAlign=middle;resizable=0;points=[];" vertex="1" connectable="0" parent="R64345A5zoMkeh7rRmpc-28">
                    <mxGeometry x="-0.2936" y="-1" relative="1" as="geometry">
                        <mxPoint x="1" as="offset"/>
                    </mxGeometry>
                </mxCell>
                <mxCell id="R64345A5zoMkeh7rRmpc-26" value="Dev" style="verticalLabelPosition=bottom;html=1;verticalAlign=top;align=center;strokeColor=none;fillColor=#00BEF2;shape=mxgraph.azure.user;rounded=1;shadow=1;" vertex="1" parent="kL_oIdWE3ERjZyZuCVRg-1">
                    <mxGeometry x="190" y="160" width="47.5" height="50" as="geometry"/>
                </mxCell>
                <mxCell id="R64345A5zoMkeh7rRmpc-30" value="User Experience" style="fillColor=#4DA1F5;strokeColor=none;shadow=1;gradientColor=none;fontSize=14;align=left;spacingLeft=50;fontColor=#ffffff;rounded=1;" vertex="1" parent="kL_oIdWE3ERjZyZuCVRg-1">
                    <mxGeometry x="180" y="-10" width="460" height="20" as="geometry"/>
                </mxCell>
            </root>
        </mxGraphModel>
    </diagram>
</mxfile>